<svg xmlns="http://www.w3.org/2000/svg" width="720" height="960" viewBox="0 0 720 960" role="img" aria-labelledby="title desc">
<title id="title">Naitik Joshi - KTM Project Broadcast</title>
<desc id="desc">Mobile profile poster broadcasting four selected software projects from Kathmandu.</desc>
<defs>
  <pattern id="micro-grid" width="26" height="26" patternUnits="userSpaceOnUse">
    <path d="M26 0H0V26" fill="none" stroke="#111318" stroke-width="1" opacity=".055"/>
  </pattern>
  <clipPath id="stage-clip"><rect x="486" y="103" width="674" height="418"/></clipPath>
  <clipPath id="stage-clip-mobile"><rect x="34" y="267" width="652" height="438"/></clipPath>
</defs>
<style>
text{font-family:'Arial Narrow','Roboto Condensed','Helvetica Neue',Arial,sans-serif;letter-spacing:0}
.mono{font-family:'SFMono-Regular',Consolas,'Liberation Mono',monospace}
.paper{fill:#F5F0E7}.paper-alt{fill:#FFFCF6}
.ink{fill:#111318}.muted{fill:#5E6066}.line{stroke:#111318}
.outline{fill:#FFFCF6;stroke:#111318;stroke-width:3}
.shadow{fill:#111318}.red{fill:#E84A50}.blue{fill:#2456E8}
.yellow{fill:#F3BF25}.mint{fill:#26B892}.skyline{fill:#D7D0C5}
.display{fill:#111318;font-size:66px;font-weight:950}
.display-small{fill:#111318;font-size:52px;font-weight:950}
.role{fill:#111318;font-size:17px;font-weight:800}
.eyebrow{fill:#5E6066;font-size:13px;font-weight:800}
.label{fill:#111318;font-size:14px;font-weight:900}
.project-name{fill:#111318;font-size:47px;font-weight:950}
.project-name-mobile{fill:#111318;font-size:38px;font-weight:950}
.project-copy{fill:#111318;font-size:18px;font-weight:650}
.project-copy-mobile{fill:#111318;font-size:16px;font-weight:650}
.meta{fill:#5E6066;font-size:13px;font-weight:800}
.status-on-dark{fill:#F4F0E8;font-size:12px;font-weight:950}
.status-on-light{fill:#111318;font-size:12px;font-weight:950}
.number{fill:#111318;font-size:112px;font-weight:950;opacity:.08}
.stat{fill:#111318;font-size:17px;font-weight:900}
.tiny{fill:#5E6066;font-size:11px;font-weight:800}
.feature{opacity:0;visibility:hidden;animation:featureCycle 16s infinite}
.indicator{opacity:.25;animation:indicatorCycle 16s infinite}
.scene-2,.indicator-2{animation-delay:4s}.scene-3,.indicator-3{animation-delay:8s}
.scene-4,.indicator-4{animation-delay:12s}
.scan{transform-origin:center;animation:scan 5s linear infinite}
.dash{stroke-dasharray:9 11;animation:dash 6s linear infinite}
.pulse{transform-origin:center;animation:pulse 2.4s ease-out infinite}
.cursor{animation:blink 1s steps(1) infinite}
@keyframes featureCycle{0%,22%{opacity:1;visibility:visible;transform:translateY(0)}24%,98%{opacity:0;visibility:hidden;transform:translateY(10px)}99%,100%{opacity:0;visibility:hidden}}
@keyframes indicatorCycle{0%,22%{opacity:1}24%,100%{opacity:.25}}
@keyframes scan{to{transform:rotate(360deg)}}@keyframes dash{to{stroke-dashoffset:-80}}
@keyframes pulse{0%{transform:scale(.55);opacity:.9}100%{transform:scale(1.55);opacity:0}}
@keyframes blink{50%{opacity:0}}
@media(prefers-reduced-motion:reduce){.feature,.indicator,.scan,.dash,.pulse,.cursor{animation:none!important}.feature{opacity:0;visibility:hidden}.scene-1{opacity:1;visibility:visible}.indicator{opacity:.25}.indicator-1{opacity:1}}
</style>
<rect width="720" height="960" class="paper"/><rect width="720" height="960" fill="url(#micro-grid)"/>
<rect x="14" y="14" width="692" height="932" fill="none" class="line" stroke-width="3"/>
<rect x="27" y="28" width="666" height="46" class="paper-alt line" stroke-width="2"/>
<rect x="27" y="28" width="232" height="46" class="red"/>
<text x="44" y="58" class="label mono" text-anchor="start">LIVE FROM KATHMANDU</text>
<text x="674" y="58" class="label mono" text-anchor="end">KTM-NP-0545</text>
<text x="34" y="139" class="display-small" text-anchor="start">NAITIK JOSHI</text>
<rect x="36" y="161" width="326" height="8" class="blue"/>
<text x="35" y="204" class="role" text-anchor="start">DEVELOPER / BUILDER / AI STUDENT</text>
<text x="35" y="235" class="eyebrow mono" text-anchor="start">BUILDING USEFUL AND UNUSUAL SOFTWARE</text>
<rect x="45" y="278" width="652" height="438" class="shadow"/>
<rect x="34" y="267" width="652" height="438" class="outline"/>
<g clip-path="url(#stage-clip-mobile)">
  <rect x="34" y="267" width="652" height="45" class="blue"/>
  <text x="55" y="296" class="status-on-dark mono" text-anchor="start">PROJECT TRANSMISSION</text>
  <text x="664" y="296" class="status-on-dark mono" text-anchor="end">16 SEC LOOP</text>
  <g class="feature scene-1">
  <text x="620" y="378" class="number" text-anchor="end">01</text>
  <text x="64" y="342" class="project-name-mobile" text-anchor="start">ProdTag</text>
  <rect x="64" y="367" width="170" height="27" class="mint"/>
  <text x="76" y="386" class="status-on-light" text-anchor="start">ACTIVE DEVELOPMENT</text>
  <text x="64" y="441" class="project-copy-mobile" text-anchor="start">Desktop audio cues that make long-running terminal</text>
<text x="64" y="465" class="project-copy-mobile" text-anchor="start">work easier to follow.</text>
  <text x="64" y="626" class="meta mono" text-anchor="start">GO + WAILS  /  Go</text>
  <text x="64" y="651" class="meta mono" text-anchor="start">ST 0  /  FK 0  /  UPDATED 08-27</text>
  <g><rect x="438" y="470" width="204" height="150" fill="none" class="line" stroke-width="3"/><rect x="455" y="569" width="10" height="22" class="mint" opacity="0.42"/><rect x="473" y="550" width="10" height="41" class="mint" opacity="0.47"/><rect x="491" y="525" width="10" height="66" class="mint" opacity="0.52"/><rect x="509" y="503" width="10" height="88" class="mint" opacity="0.57"/><rect x="527" y="544" width="10" height="47" class="mint" opacity="0.62"/><rect x="545" y="560" width="10" height="31" class="mint" opacity="0.67"/><rect x="563" y="518" width="10" height="73" class="mint" opacity="0.72"/><rect x="581" y="497" width="10" height="94" class="mint" opacity="0.77"/><rect x="599" y="533" width="10" height="58" class="mint" opacity="0.82"/><path d="M453 595H627" class="line" stroke-width="3"/></g>
</g>
<g class="feature scene-2">
  <text x="620" y="378" class="number" text-anchor="end">02</text>
  <text x="64" y="342" class="project-name-mobile" text-anchor="start">Research Hub</text>
  <rect x="64" y="367" width="178" height="27" class="yellow"/>
  <text x="76" y="386" class="status-on-light" text-anchor="start">HACKATHON PROTOTYPE</text>
  <text x="64" y="441" class="project-copy-mobile" text-anchor="start">An AI-assisted research workspace with researcher</text>
<text x="64" y="465" class="project-copy-mobile" text-anchor="start">tools and a focused CMS.</text>
  <text x="64" y="626" class="meta mono" text-anchor="start">NEXT + SUPABASE  /  TypeScript</text>
  <text x="64" y="651" class="meta mono" text-anchor="start">ST 0  /  FK 0  /  UPDATED 09-13</text>
  <g>
  <rect x="438" y="470" width="204" height="150" fill="none" class="line" stroke-width="3"/>
  <path d="M465 503L536 534L492 591L592 579L614 513L536 534" fill="none" class="line" stroke-width="3"/>
  <circle cx="465" cy="503" r="10" class="yellow"/><circle cx="536" cy="534" r="15" class="blue"/>
  <circle cx="492" cy="591" r="9" class="mint"/><circle cx="592" cy="579" r="11" class="red"/>
  <circle cx="614" cy="513" r="8" class="yellow"/>
</g>
</g>
<g class="feature scene-3">
  <text x="620" y="378" class="number" text-anchor="end">03</text>
  <text x="64" y="342" class="project-name-mobile" text-anchor="start">API Escape</text>
  <rect x="64" y="367" width="202" height="27" class="blue"/>
  <text x="76" y="386" class="status-on-dark" text-anchor="start">COMPLETED TEAM PROJECT</text>
  <text x="64" y="441" class="project-copy-mobile" text-anchor="start">A containerized FastAPI learning platform with</text>
<text x="64" y="465" class="project-copy-mobile" text-anchor="start">Groq-assisted guidance.</text>
  <text x="64" y="626" class="meta mono" text-anchor="start">FASTAPI + DOCKER  /  Python</text>
  <text x="64" y="651" class="meta mono" text-anchor="start">ST 0  /  FK 0  /  UPDATED 08-24</text>
  <g>
  <rect x="438" y="470" width="204" height="150" fill="none" class="line" stroke-width="3"/>
  <rect x="457" y="498" width="52" height="38" fill="none" class="line" stroke-width="3"/>
  <rect x="571" y="498" width="52" height="38" fill="none" class="line" stroke-width="3"/>
  <rect x="514" y="563" width="52" height="38" fill="none" class="line" stroke-width="3"/>
  <path d="M509 517H571M597 536V555H540V563" fill="none" class="line" stroke-width="3"/>
  <circle cx="540" cy="517" r="7" class="blue"/><circle cx="597" cy="555" r="7" class="yellow"/>
  <circle cx="540" cy="582" r="7" class="red"/>
</g>
</g>
<g class="feature scene-4">
  <text x="620" y="378" class="number" text-anchor="end">04</text>
  <text x="64" y="342" class="project-name-mobile" text-anchor="start">Tab Unloader</text>
  <rect x="64" y="367" width="74" height="27" class="mint"/>
  <text x="76" y="386" class="status-on-light" text-anchor="start">STABLE</text>
  <text x="64" y="441" class="project-copy-mobile" text-anchor="start">A browser utility for unloading inactive tabs and</text>
<text x="64" y="465" class="project-copy-mobile" text-anchor="start">reclaiming memory without losing the session.</text>
  <text x="64" y="626" class="meta mono" text-anchor="start">CHROMIUM EXTENSION  /  JavaScript</text>
  <text x="64" y="651" class="meta mono" text-anchor="start">ST 0  /  FK 0  /  UPDATED 05-22</text>
  <g>
  <rect x="438" y="470" width="204" height="150" fill="none" class="line" stroke-width="3"/>
  <rect x="454" y="489" width="172" height="112" fill="none" class="line" stroke-width="3"/>
  <rect x="454" y="489" width="172" height="24" class="mint"/>
  <circle cx="469" cy="501" r="4" class="paper"/><circle cx="482" cy="501" r="4" class="paper"/>
  <path d="M475 538H602M475 559H579M475 580H591" class="line" stroke-width="5"/>
  <path d="M593 569l17 17m0-17l-17 17" fill="none" stroke="#FF5A5F" stroke-width="6"/>
</g>
</g>
  <rect x="50" y="670" width="143" height="7" class="mint indicator indicator-1"/>
<text x="50" y="695" class="tiny mono" text-anchor="start">01</text>
<rect x="205" y="670" width="143" height="7" class="yellow indicator indicator-2"/>
<text x="205" y="695" class="tiny mono" text-anchor="start">02</text>
<rect x="360" y="670" width="143" height="7" class="blue indicator indicator-3"/>
<text x="360" y="695" class="tiny mono" text-anchor="start">03</text>
<rect x="515" y="670" width="143" height="7" class="mint indicator indicator-4"/>
<text x="515" y="695" class="tiny mono" text-anchor="start">04</text>
</g>
<rect x="34" y="739" width="652" height="61" class="yellow line" stroke-width="3"/>
<text x="54" y="766" class="tiny mono" text-anchor="start">PUBLIC SIGNAL</text>
<text x="54" y="787" class="label mono" text-anchor="start">17 REPOS / 2 STARS / 6 FOLLOWERS</text>
<text x="665" y="787" class="label mono" text-anchor="end">NPT +05:45</text>
<g class="skyline" opacity=".9">
<rect x="10" y="860" width="62" height="54"/>
<rect x="74" y="826" width="62" height="88"/>
<rect x="86" y="842" width="7" height="7" class="yellow"/>
<rect x="137" y="851" width="62" height="63"/>
<rect x="203" y="810" width="62" height="104"/>
<rect x="278" y="842" width="62" height="72"/>
<rect x="290" y="858" width="7" height="7" class="yellow"/>
<rect x="352" y="823" width="62" height="91"/>
<rect x="425" y="856" width="62" height="58"/>
<rect x="491" y="803" width="62" height="111"/>
<rect x="503" y="819" width="7" height="7" class="yellow"/>
<rect x="568" y="838" width="62" height="76"/>
<rect x="636" y="818" width="62" height="96"/>
</g>
<rect x="26" y="866" width="668" height="54" class="paper-alt line" stroke-width="2"/>
<text x="46" y="899" class="label mono" text-anchor="start">naitik@ktm:~$</text>
<text x="674" y="899" class="label mono" text-anchor="end">broadcast --work</text>
</svg>
